<svg width="320" height="262" viewBox="0 0 320 262" fill="none" xmlns="http://www.w3.org/2000/svg">
<path fill-rule="evenodd" clip-rule="evenodd" d="M301.303 187.311C301.854 187.342 302.242 187.392 302.466 187.459C303.669 187.819 304.447 188.32 304.937 188.645C306.275 189.53 307.042 190.976 307.409 191.759C308.034 193.093 308.082 194.922 307.554 197.244C307.181 198.379 306.697 199.268 306.1 199.913C305.504 200.558 304.304 201.323 302.5 202.207C267.331 213.381 243.752 220.903 231.765 224.773C224.614 227.081 217.16 228.992 211.618 230.82C193.493 236.798 183.995 239.751 171.324 243.504C170.692 243.691 168.242 244.379 163.971 245.568L121.471 250.141L114.706 229.345L146.618 145.572L143.824 92.771L155.147 92.6235C149.735 67.5889 145.961 48.8087 143.824 36.2831C141.687 23.7574 141.966 22.0469 144.661 31.1515C144.813 26.6047 145.269 23.4973 146.03 21.8293C147.126 19.4244 149.159 17.4799 150.441 15.9298C153.058 12.7668 157.576 9.88395 163.995 7.28118C168.885 6.19233 172.568 5.74754 175.043 5.94681C177.517 6.14608 181.2 7.18392 186.091 9.06034C186.769 8.66497 195.297 14.9909 211.675 28.038C228.054 41.0851 263.672 69.2506 318.529 112.534C320.49 116.172 320.49 118.975 318.529 120.941C315.588 123.891 314.484 123.628 312.206 123.006C311.729 122.876 309.327 121.499 305 118.876L280.294 102.21L282.059 112.977C282.005 114.307 281.662 115.241 281.029 115.779C280.397 116.317 279.318 116.612 277.794 116.664L262.941 108.7L233.626 120.999C234.487 123.371 234.994 125.22 235.147 126.546C235.301 127.871 235.105 128.707 234.559 129.053C234.537 128.93 229.684 129.913 220 132.003C216.04 132.857 208.285 134.555 196.735 137.096C196.137 141.071 195.608 143.11 195.147 143.212C192.571 143.782 188.563 149.827 179.853 148.374C179.473 148.311 178.346 146.049 176.471 141.589L174.316 171.853C175.052 173.745 175.575 175.063 175.883 175.807C176.191 176.551 176.926 177.239 178.088 177.871C179.773 179.05 181.391 179.787 182.941 180.084C183.487 180.188 184.113 180.493 184.755 180.597C185.543 180.725 186.9 180.873 188.825 181.042L253.088 171.824C254.869 171.177 256.437 171.694 257.794 173.374C259.151 175.054 259.004 177.143 257.353 179.641L245.147 187.311L277.843 179.71C279.685 179.413 281.09 180.056 282.059 181.637C282.695 182.675 282.971 183.786 282.647 184.951C282.534 185.358 282.193 185.983 281.623 186.826L269.412 194.833L299.559 187.311H301.303Z" fill="white"/>
<path fill-rule="evenodd" clip-rule="evenodd" d="M144.749 31.1752H148.236C149.129 31.1752 149.854 30.4489 149.854 29.5529V29.2579C149.854 28.3619 149.129 27.6355 148.236 27.6355H145.211C145.144 25.6874 143.703 24.0019 141.711 23.6998C141.508 23.6689 141.302 23.6534 141.096 23.6534H139.631C137.468 23.6534 135.673 25.3328 135.524 27.4976L135.001 35.0675L144.148 35.1574L144.749 31.1752Z" fill="white"/>
<path fill-rule="evenodd" clip-rule="evenodd" d="M275.883 92.9179C272.362 93.609 266.053 96.6695 256.957 102.1C253.032 104.442 248.109 107.711 243.165 111.725C241.698 112.917 239.501 114.845 237.443 116.612C235.739 118.077 234.098 119.306 233.335 121.055C232.822 122.232 234.435 123.79 234.949 126.09C235.045 126.517 235.081 127.406 234.656 128.46C234.582 128.643 234.386 128.89 234.069 129.2C233.386 129.085 234.511 128.888 237.443 128.608C243.111 128.066 246.665 128.294 249.914 127.127C255.685 125.053 259.695 123.03 261.945 121.055L249.181 115.28C250.595 113.928 251.915 112.99 253.142 112.466C256.884 110.868 261.971 109.696 264.146 107.875C265.722 106.555 267.829 104.787 269.721 102.396C271.055 100.709 273.109 97.5495 275.883 92.9179Z" fill="#282943"/>
<path fill-rule="evenodd" clip-rule="evenodd" d="M198.683 37.9806C198.736 37.5976 198.763 37.2044 198.763 36.8068C198.763 35.3774 198.325 33.9167 197.538 32.8996C196.543 31.6133 195.011 30.946 193.338 30.946C191.403 30.946 189.704 32.0406 188.744 33.6879C188.776 33.4187 188.792 33.1397 188.792 32.8507C188.792 31.9467 188.765 31.0712 188.442 30.3022C187.58 28.2489 185.547 26.8434 183.367 26.8434C181.982 26.8434 180.476 27.3539 179.517 28.2998C178.402 29.4 177.942 31.0667 177.942 32.8507C177.942 34.9153 178.61 36.6845 180.042 37.7658C180.912 38.4222 182.236 38.858 183.367 38.858C184.342 38.858 185.377 38.2644 186.167 37.7658C186.912 37.296 187.522 36.7003 187.966 35.9801C187.931 36.2501 187.913 36.5262 187.913 36.8068C187.913 38.0051 188.041 39.0753 188.613 40.0035C189.585 41.5826 191.451 42.6675 193.338 42.6675C194.652 42.6675 196.074 42.264 197.013 41.4243C197.407 41.0721 197.73 40.65 197.987 40.1777C198.037 41.1043 198.486 41.9905 199.261 42.5767L207.004 48.4328C207.522 48.8252 208.26 48.7215 208.651 48.2012C208.725 48.1033 208.783 47.9946 208.823 47.8788L209.726 45.2789C210.059 44.3177 209.816 43.2498 209.099 42.5297L209.042 42.4724L209.823 42.2353C210.616 41.9946 211.251 41.3955 211.539 40.6163L212.277 38.6169C212.503 38.0058 212.192 37.327 211.582 37.1007C211.467 37.0579 211.346 37.0335 211.224 37.0283L201.592 36.6183C200.44 36.5693 199.362 37.0936 198.683 37.9806Z" fill="#282943"/>
<path fill-rule="evenodd" clip-rule="evenodd" d="M46.8465 115.689L2.67615 118.007C1.13851 118.087 -0.0427856 119.403 0.037674 120.945C0.037674 120.945 0.0376663 120.945 0.037674 120.945C0.118263 122.488 1.43014 123.672 2.96796 123.592L92.7018 118.887C93.3507 118.853 93.8492 118.298 93.8153 117.647C93.8153 117.647 93.8153 117.647 93.8151 117.647L93.7212 115.85L93.8235 112.914C93.8462 112.263 93.3382 111.716 92.6888 111.693C92.6888 111.693 92.6888 111.693 92.6888 111.694L2.88604 108.553C1.34708 108.499 0.0559769 109.707 0.00223541 111.25C-0.051506 112.794 1.15249 114.089 2.69141 114.143C2.69141 114.143 2.6914 114.143 2.69141 114.143L46.8465 115.689Z" fill="#282943"/>
<path d="M158.824 21.6075H141.765C141.643 21.6075 141.544 21.7066 141.544 21.8288V29.2032C141.544 29.3254 141.643 29.4244 141.765 29.4244H158.824C160.57 29.4244 161.985 28.0047 161.985 26.2534V24.7785C161.985 23.0272 160.57 21.6075 158.824 21.6075ZM141.985 22.05H158.824C160.326 22.05 161.544 23.2716 161.544 24.7785V26.2534C161.544 27.7603 160.326 28.9819 158.824 28.9819H141.985V22.05Z" fill="#282943"/>
<path fill-rule="evenodd" clip-rule="evenodd" d="M93.2349 109.979V120.967C93.2349 134.598 104.253 145.648 117.844 145.648H145.039C150.398 145.934 154.974 141.809 155.259 136.434C155.359 134.548 154.911 132.673 153.968 131.038L152.474 128.446C159.029 128.98 159.667 125.107 154.386 116.827C149.105 108.546 145.99 100.478 145.039 92.6229H110.541C100.983 92.6229 93.2349 100.394 93.2349 109.979Z" fill="#282943"/>
<path fill-rule="evenodd" clip-rule="evenodd" d="M93.2349 109.979V120.967C93.2349 134.598 104.253 145.648 117.844 145.648H145.039C150.398 145.934 154.974 141.809 155.259 136.434C155.359 134.548 154.911 132.673 153.968 131.038L152.474 128.446C159.029 128.98 159.667 125.107 154.386 116.827C149.105 108.546 145.99 100.478 145.039 92.6229H110.541C100.983 92.6229 93.2349 100.394 93.2349 109.979Z" fill="#282943"/>
<path fill-rule="evenodd" clip-rule="evenodd" d="M198.683 37.9806C198.736 37.5976 198.763 37.2044 198.763 36.8068C198.763 35.3774 198.325 33.9167 197.538 32.8996C196.543 31.6133 195.011 30.946 193.338 30.946C191.403 30.946 189.704 32.0406 188.744 33.6879C188.776 33.4187 188.792 33.1397 188.792 32.8507C188.792 31.9467 188.765 31.0712 188.442 30.3022C187.58 28.2489 185.547 26.8434 183.367 26.8434C181.982 26.8434 180.476 27.3539 179.517 28.2998C178.402 29.4 177.942 31.0667 177.942 32.8507C177.942 34.9153 178.61 36.6845 180.042 37.7658C180.912 38.4222 182.236 38.858 183.367 38.858C184.342 38.858 185.377 38.2644 186.167 37.7658C186.912 37.296 187.522 36.7003 187.966 35.9801C187.931 36.2501 187.913 36.5262 187.913 36.8068C187.913 38.0051 188.041 39.0753 188.613 40.0035C189.585 41.5826 191.451 42.6675 193.338 42.6675C194.652 42.6675 196.074 42.264 197.013 41.4243C197.407 41.0721 197.73 40.65 197.987 40.1777C198.037 41.1043 198.486 41.9905 199.261 42.5767L207.004 48.4328C207.522 48.8252 208.26 48.7215 208.651 48.2012C208.725 48.1033 208.783 47.9946 208.823 47.8788L209.726 45.2789C210.059 44.3177 209.816 43.2498 209.099 42.5297L209.042 42.4724L209.823 42.2353C210.616 41.9946 211.251 41.3955 211.539 40.6163L212.277 38.6169C212.503 38.0058 212.192 37.327 211.582 37.1007C211.467 37.0579 211.346 37.0335 211.224 37.0283L201.592 36.6183C200.44 36.5693 199.362 37.0936 198.683 37.9806Z" fill="#282943"/>
<path fill-rule="evenodd" clip-rule="evenodd" d="M275.883 92.9179C272.362 93.609 266.053 96.6695 256.957 102.1C253.032 104.442 248.109 107.711 243.165 111.725C241.698 112.917 239.501 114.845 237.443 116.612C235.739 118.077 234.098 119.306 233.335 121.055C232.822 122.232 234.435 123.79 234.949 126.09C235.045 126.517 235.081 127.406 234.656 128.46C234.582 128.643 234.386 128.89 234.069 129.2C233.386 129.085 234.511 128.888 237.443 128.608C243.111 128.066 246.665 128.294 249.914 127.127C255.685 125.053 259.695 123.03 261.945 121.055L249.181 115.28C250.595 113.928 251.915 112.99 253.142 112.466C256.884 110.868 261.971 109.696 264.146 107.875C265.722 106.555 267.829 104.787 269.721 102.396C271.055 100.709 273.109 97.5495 275.883 92.9179Z" fill="#282943"/>
<path fill-rule="evenodd" clip-rule="evenodd" d="M180.408 41.8785C180.129 41.8261 179.846 41.7772 179.559 41.7318L179.611 41.8645L175.55 41.7933C175.524 41.7933 175.497 41.7934 175.47 41.7936C174.852 41.476 173.822 41.5288 172.379 41.952C159.549 45.8665 151.786 46.3979 149.091 43.546C146.395 40.6941 145.014 38.4692 144.947 34.9662L133.53 34.8074C133.741 44.9686 136.278 49.9963 141.775 54.336C143.175 55.4407 144.947 55.6061 147.801 58.9403C150.655 62.2744 157.157 61.6394 160.011 61.0043C161.851 60.5948 164.071 59.2717 166.671 57.0351V67.5138H187.702L191.699 84.6583H205.361C206.706 82.3276 205.451 73.6772 201.593 67.5685C199.472 64.2108 198.468 56.6754 194.997 51.1117C192.776 47.5516 188.279 43.3692 180.446 41.8857L180.442 41.8791L180.408 41.8785Z" fill="#008BFF"/>
<mask id="mask0_1147_14092" style="mask-type:alpha" maskUnits="userSpaceOnUse" x="160" y="14" width="21" height="29">
<path d="M180.001 30.9298V24.1884C180.001 18.6494 175.524 14.1592 170.001 14.1592C164.478 14.1592 160.001 18.6494 160.001 24.1884V31.125C160.001 34.0574 162.371 36.4345 165.295 36.4345C165.588 36.4345 165.88 36.4102 166.169 36.3616C169.194 35.8538 171.264 35.5878 172.38 35.5635L172.354 41.8321C173.633 42.3156 174.908 42.6106 176.177 42.7171C177.447 42.8235 178.722 42.568 180.001 41.9504V30.9298Z" fill="white"/>
</mask>
<g mask="url(#mask0_1147_14092)">
<path d="M180.001 30.9298V24.1884C180.001 18.6494 175.524 14.1592 170.001 14.1592C164.478 14.1592 160.001 18.6494 160.001 24.1884V31.125C160.001 34.0574 162.371 36.4345 165.295 36.4345C165.588 36.4345 165.88 36.4102 166.169 36.3616C169.194 35.8538 171.264 35.5878 172.38 35.5635L172.354 41.8321C173.633 42.3156 174.908 42.6106 176.177 42.7171C177.447 42.8235 178.722 42.568 180.001 41.9504V30.9298Z" fill="white"/>
</g>
<mask id="mask1_1147_14092" style="mask-type:alpha" maskUnits="userSpaceOnUse" x="159" y="14" width="22" height="29">
<path d="M179.999 37.533L180.248 24.334C180.352 18.8199 175.98 14.2653 170.482 14.1609C170.419 14.1597 170.356 14.1591 170.293 14.1591H169.921C163.937 14.1591 159.086 19.0242 159.086 25.0256C159.086 25.2994 159.096 25.5731 159.117 25.8461L159.555 31.6549C159.776 34.5789 162.318 36.7698 165.234 36.5484C165.398 36.5359 165.562 36.5158 165.724 36.4881C168.99 35.9296 171.208 35.6376 172.378 35.612L172.352 41.8869C173.631 42.3703 174.906 42.6653 176.176 42.7718C177.445 42.8783 178.72 42.6227 179.999 42.0052V37.533Z" fill="white"/>
</mask>
<g mask="url(#mask1_1147_14092)">
<path d="M179.999 37.533L180.248 24.334C180.352 18.8199 175.98 14.2653 170.482 14.1609C170.419 14.1597 170.356 14.1591 170.293 14.1591H169.921C163.937 14.1591 159.086 19.0242 159.086 25.0256C159.086 25.2994 159.096 25.5731 159.117 25.8461L159.555 31.6549C159.776 34.5789 162.318 36.7698 165.234 36.5484C165.398 36.5359 165.562 36.5158 165.724 36.4881C168.99 35.9296 171.208 35.6376 172.378 35.612L172.352 41.8869C173.631 42.3703 174.906 42.6653 176.176 42.7718C177.445 42.8783 178.72 42.6227 179.999 42.0052V37.533Z" fill="white"/>
<path fill-rule="evenodd" clip-rule="evenodd" d="M180.081 31.3226C177.046 31.3226 174.178 29.9362 172.287 27.5563L162.475 15.2063L159.807 19.0156L157.94 11.104L180.881 9.19937L180.081 31.3226Z" fill="#282943"/>
</g>
<path d="M179.884 37.6611L180 24.4415C179.976 23.5368 179.928 22.8464 179.853 22.3703C179.833 22.2403 179.782 21.94 179.7 21.4693C178.957 17.2093 175.268 14.1167 170.98 14.1596L168.981 14.1795C165.296 14.2163 162.053 16.6425 160.949 20.1891C160.442 21.8176 160.144 23.383 160.053 24.8853C159.926 27.0106 160.027 29.4512 160.358 32.2072C160.669 34.7952 162.995 36.6428 165.562 36.3402L172.373 35.5372V38.0522" stroke="#282943" stroke-linecap="round" stroke-linejoin="round"/>
<path fill-rule="evenodd" clip-rule="evenodd" d="M159.193 21.534H141.174V29.4983H159.193C160.398 29.4983 161.45 28.6831 161.755 27.5145C161.956 26.7414 162.057 26.0753 162.057 25.5161C162.057 24.957 161.956 24.2909 161.755 23.5178C161.45 22.3492 160.398 21.534 159.193 21.534Z" fill="white"/>
<path d="M159.202 21.534H141.174V29.4983H159.202C160.401 29.4983 161.449 28.6857 161.753 27.5203C161.955 26.7447 162.057 26.0767 162.057 25.5161C162.057 24.9556 161.955 24.2875 161.753 23.5119C161.449 22.3466 160.401 21.534 159.202 21.534ZM159.202 21.9756C160.201 21.9756 161.074 22.6528 161.328 23.6239C161.521 24.3656 161.617 24.9973 161.617 25.5161C161.617 26.035 161.521 26.6667 161.328 27.4084C161.074 28.3795 160.201 29.0567 159.202 29.0567H141.614V21.9756H159.202Z" fill="#282943"/>
<path fill-rule="evenodd" clip-rule="evenodd" d="M172.582 41.9194L173.852 42.1867L173.684 37.8815H169.999L172.582 41.9194ZM173.924 42.248C176.089 42.4684 177.488 42.53 178.121 42.4326C178.755 42.3352 179.496 42.038 180.345 41.541L181.176 37.7577L174.737 37.9755L173.924 42.248Z" fill="#008BFF"/>
<path fill-rule="evenodd" clip-rule="evenodd" d="M180.804 10.2742C182.157 10.3148 183.226 10.2657 184.011 10.127C184.796 9.9882 185.518 9.66085 186.176 9.14494C183.318 8.01914 181.112 7.2817 179.558 6.93263C175.89 6.10847 172.867 5.78795 171.55 5.84996C166.736 6.07649 162.674 7.4874 159.007 9.29636C157.272 10.1524 154.816 11.9681 151.641 14.7435C153.385 14.7517 154.652 14.7046 155.441 14.602C156.93 14.4083 158.247 13.8815 159.558 13.7171C162.01 13.4097 163.768 14.1534 165.106 13.7067C166.473 13.2502 167.567 12.5242 168.538 12.3854C171.077 12.0223 172.576 12.0992 174.593 11.7437C175.988 11.498 178.058 11.0082 180.804 10.2742ZM165.294 245.421C164.733 244.655 164.341 244.114 164.117 243.798C163.099 242.361 162.383 241.418 161.764 240.848C159.573 238.834 156.017 240.326 153.97 238.784C152.397 237.599 151.359 236.29 150 235.096C148.818 234.059 147.367 234.217 145.882 234.211C143.942 234.204 141.958 234.166 140.588 233.327C138.814 232.24 137.095 230.52 135.441 230.229C132.961 229.793 130.826 230.771 128.823 230.377C126.512 229.921 124.855 228.352 123.088 227.722C121.773 227.253 120.54 227.301 118.235 228.017C117.574 228.222 116.349 228.615 114.558 229.197C114.039 231.212 113.745 232.785 113.676 233.916C113.612 234.971 113.582 235.983 113.676 237.161C114.264 244.536 117.52 247.837 121.764 250.878C123.134 251.859 124.315 252.003 125.147 252.352C126.52 252.93 127.275 253.422 129.853 253.68C130.407 253.735 131.493 253.758 132.205 253.827C134.484 254.05 139.021 252.316 147.205 250.14C151.373 249.032 157.403 247.459 165.294 245.421Z" fill="#282943"/>
<path fill-rule="evenodd" clip-rule="evenodd" d="M195.561 142.769L198.859 149.261C199.154 149.842 198.924 150.552 198.345 150.848C198.332 150.854 198.32 150.86 198.307 150.866L195.021 152.402C194.452 152.668 193.775 152.439 193.483 151.882L192.647 150.291L192.165 152.715C191.938 153.859 191.238 154.853 190.24 155.451L181.347 160.785C180.371 161.37 179.107 161.051 178.523 160.072C178.306 159.707 178.206 159.283 178.237 158.859L179.048 147.988" fill="#282943"/>
<path fill-rule="evenodd" clip-rule="evenodd" d="M138.662 19.4686H113.014L112.942 31.5626L138.64 31.4232C140.226 31.4146 141.642 30.425 142.199 28.9357C142.695 27.6118 142.942 26.4943 142.942 25.5832C142.942 24.6883 142.735 23.5568 142.321 22.1888C141.832 20.5731 140.346 19.4686 138.662 19.4686Z" fill="white"/>
<path d="M138.604 19.4686H112.869C112.747 19.4686 112.648 19.5689 112.648 19.6926V31.3386C112.648 31.4623 112.747 31.5626 112.869 31.5626H138.604C141 31.5626 142.942 29.5906 142.942 27.158V23.8732C142.942 21.4406 141 19.4686 138.604 19.4686ZM113.089 19.9165H138.604C140.756 19.9165 142.501 21.688 142.501 23.8732V27.158C142.501 29.3432 140.756 31.1147 138.604 31.1147H113.089V19.9165Z" fill="#282943"/>
<path fill-rule="evenodd" clip-rule="evenodd" d="M109.998 18.2314L108.648 18.0377L85.2953 17.9943V32.9947L109.056 33.0348C110.299 33.0369 111.492 32.5458 112.375 31.6687C113.365 30.6854 113.88 30.1614 113.918 30.0968C115.145 28.0425 114.574 26.7144 114.574 25.4945C114.574 24.3954 114.32 23.0515 113.813 21.4627C113.263 19.7421 111.781 18.4874 109.998 18.2314Z" fill="white"/>
<path d="M107.938 102.062H115.29C119.514 102.062 122.938 105.496 122.938 109.732V110.912C122.938 115.147 119.514 118.581 115.29 118.581H107.938C103.714 118.581 100.29 115.147 100.29 110.912V109.732C100.29 105.496 103.714 102.062 107.938 102.062Z" fill="white"/>
<mask id="mask2_1147_14092" style="mask-type:alpha" maskUnits="userSpaceOnUse" x="100" y="102" width="23" height="17">
<path d="M107.938 102.062H115.29C119.514 102.062 122.938 105.496 122.938 109.732V110.912C122.938 115.147 119.514 118.581 115.29 118.581H107.938C103.714 118.581 100.29 115.147 100.29 110.912V109.732C100.29 105.496 103.714 102.062 107.938 102.062Z" fill="white"/>
</mask>
<g mask="url(#mask2_1147_14092)">
<path d="M112.348 104.275C112.348 102.076 114.126 100.293 116.318 100.293C118.511 100.293 120.289 102.076 120.289 104.275V107.225C120.289 109.424 118.511 111.207 116.318 111.207C114.126 111.207 112.348 109.424 112.348 107.225V104.275Z" fill="#282943"/>
</g>
<path d="M168.754 26.0342C168.683 25.9337 168.543 25.9092 168.441 25.9795C167.437 26.6747 166.545 26.7114 165.713 26.0989C165.613 26.0257 165.473 26.0461 165.399 26.1445C165.325 26.2429 165.346 26.3819 165.445 26.4551C166.438 27.1858 167.54 27.1456 168.699 26.3433C168.8 26.273 168.825 26.1346 168.754 26.0342ZM165.032 31.4407C165.087 31.331 165.042 31.1977 164.932 31.1428C164.5 30.9293 163.968 30.8234 163.336 30.8234C162.693 30.8234 162.205 30.9325 161.865 31.1567C161.762 31.2247 161.734 31.3625 161.803 31.4645C161.872 31.5666 162.011 31.5941 162.114 31.5261C162.372 31.3558 162.782 31.2674 163.336 31.2674C163.9 31.2674 164.365 31.3589 164.731 31.54C164.842 31.5948 164.976 31.5503 165.032 31.4407ZM162.956 26.2658C163.176 25.3239 163.732 24.4924 164.523 23.9242C166.333 22.6225 168.868 23.0199 170.183 24.8119C170.256 24.9111 170.396 24.9331 170.496 24.861C170.597 24.789 170.619 24.6502 170.546 24.551C169.085 22.5606 166.27 22.1191 164.259 23.565C163.381 24.196 162.763 25.1196 162.519 26.1658L161.771 29.3674C161.739 29.5065 161.845 29.6394 161.99 29.6394H163.57C163.694 29.6394 163.794 29.54 163.794 29.4174C163.794 29.2948 163.694 29.1954 163.57 29.1954H162.272L162.956 26.2658Z" fill="#282943"/>
<path d="M108.564 17.6988H90.8102C90.6876 17.6988 90.5883 17.7988 90.5883 17.9221V33.1091C90.5883 33.2325 90.6876 33.3325 90.8102 33.3325H108.564C112.119 33.3325 115 30.4327 115 26.8557V24.1756C115 20.5985 112.119 17.6988 108.564 17.6988ZM91.0321 18.1454H108.564C111.873 18.1454 114.556 20.8452 114.556 24.1756V26.8557C114.556 30.186 111.873 32.8858 108.564 32.8858H91.0321V18.1454Z" fill="#282943"/>
<path fill-rule="evenodd" clip-rule="evenodd" d="M138.089 17.7594C137.833 17.2013 137.271 16.8138 136.618 16.8138H136.324C135.431 16.8138 134.706 17.5402 134.706 18.4362V22.2709C134.706 23.1669 135.431 23.8933 136.324 23.8933H136.618C137.334 23.8933 137.941 23.4269 138.154 22.7806C138.433 23.2691 138.958 23.5983 139.559 23.5983C140.453 23.5983 141.177 22.8719 141.177 21.9759V18.4362C141.177 17.5402 140.453 16.8138 139.559 16.8138C138.907 16.8138 138.344 17.2013 138.089 17.7594ZM144.265 18.5837C143.372 18.5837 142.648 19.3101 142.648 20.2061V24.0408C142.648 24.9368 143.372 25.6631 144.265 25.6631C145.159 25.6631 145.883 24.9368 145.883 24.0408V20.2061C145.883 19.3101 145.159 18.5837 144.265 18.5837Z" fill="white"/>
<path d="M182.822 149.383C182.933 149.325 182.975 149.19 182.915 149.081C182.856 148.973 182.718 148.932 182.607 148.99L178.956 150.894C178.844 150.952 178.802 151.087 178.862 151.195C178.921 151.304 179.06 151.345 179.171 151.287L182.822 149.383ZM182.815 151.166C182.928 151.112 182.975 150.979 182.919 150.868C182.863 150.758 182.726 150.713 182.613 150.767L178.658 152.671C178.545 152.726 178.498 152.859 178.554 152.969C178.61 153.08 178.747 153.125 178.86 153.07L182.815 151.166Z" fill="white"/>
<path d="M154.481 92.9181L154.49 92.9625C154.514 93.0822 154.631 93.1595 154.75 93.1352C154.855 93.1138 154.927 93.0213 154.927 92.9181H166.552C166.674 92.9181 166.773 92.8191 166.773 92.697C166.773 92.5749 166.674 92.4759 166.552 92.4759H154.841L148.158 59.542C148.133 59.4223 148.017 59.345 147.897 59.3693C147.778 59.3937 147.701 59.5105 147.725 59.6302L154.391 92.4759H145.084C145.081 92.4758 145.078 92.4758 145.075 92.4759H110.811C100.942 92.4759 92.9415 100.495 92.9415 110.387V120.412C92.9415 134.375 104.234 145.694 118.165 145.694H145.936L114.429 228.834L114.416 228.882L113.795 233.419C112.438 243.319 119.345 252.447 129.222 253.807C130.584 253.995 131.964 254.025 133.334 253.899L133.369 253.893L165.42 245.493C165.429 245.491 165.438 245.488 165.447 245.485L302.516 201.998L302.548 201.985L303.717 201.402C307.484 199.521 309.017 194.935 307.14 191.159C305.716 188.293 302.659 186.622 299.484 186.973L299.455 186.978L270.674 194.155L281.035 187.73C283.211 186.381 283.884 183.519 282.538 181.338C281.488 179.638 279.471 178.801 277.53 179.262L246.38 186.659L256.529 180.418C258.849 178.991 259.575 175.95 258.152 173.626C257.13 171.955 255.218 171.049 253.281 171.316L247.707 172.084L188.745 180.485H185.645C180.333 180.485 175.706 176.858 174.423 171.695L176.626 141.804C176.635 141.682 176.544 141.576 176.423 141.567C176.301 141.558 176.195 141.65 176.186 141.771L173.98 171.697C173.979 171.721 173.981 171.744 173.986 171.766C175.306 177.146 180.119 180.927 185.645 180.927H188.761L188.792 180.925L247.768 172.522L253.341 171.754C255.105 171.511 256.845 172.336 257.776 173.857C259.072 175.974 258.41 178.742 256.298 180.041L244.975 187.004C244.761 187.136 244.897 187.466 245.141 187.408L277.631 179.693C279.388 179.276 281.213 180.032 282.162 181.571C283.38 183.544 282.772 186.133 280.803 187.354L269.242 194.523C269.028 194.656 269.167 194.987 269.411 194.926L299.547 187.411C302.533 187.087 305.406 188.661 306.745 191.357C308.513 194.914 307.069 199.234 303.52 201.006L302.367 201.582L165.461 245.017L163.324 242.083C162.178 240.508 160.429 239.484 158.497 239.256L156.061 238.969C154.736 238.812 153.509 238.192 152.596 237.218L150.9 235.408C149.968 234.414 148.669 233.851 147.309 233.851H143.26C142.108 233.851 140.99 233.458 140.09 232.736L138.36 231.349C137.054 230.302 135.391 229.809 133.727 229.975L131.231 230.226C129.758 230.373 128.279 230.016 127.034 229.212L125.41 228.163C123.454 226.9 121.028 226.608 118.829 227.37L114.945 228.718L146.414 145.68C148.071 145.512 149.663 144.937 151.048 144.007C155.717 140.873 156.966 134.539 153.839 129.859L153.083 128.727C154.142 128.921 155.243 128.722 156.174 128.155C158.264 126.884 158.931 124.155 157.662 122.06C153.295 114.846 150.588 110.037 149.547 107.645C148.112 104.349 146.712 99.4385 145.351 92.9181H154.481ZM266.799 92.3285C266.785 92.2811 266.756 92.238 266.713 92.2077L245.97 77.7596C245.87 77.6898 245.733 77.7146 245.663 77.8149C245.593 77.9152 245.618 78.053 245.718 78.1227L266.113 92.3285H242.103L215.657 75.6898C215.554 75.6249 215.417 75.6559 215.353 75.7595C215.288 75.863 215.319 75.9995 215.422 76.0644L241.273 92.3285H188.025C187.904 92.3285 187.805 92.4275 187.805 92.5496C187.805 92.6717 187.904 92.7707 188.025 92.7707H275.595C274.562 94.5721 273.72 95.9932 273.068 97.0335C272.995 97.0309 272.922 97.0645 272.878 97.1292C272.83 97.1989 272.827 97.2864 272.864 97.3566C270.302 101.397 268.097 104.17 265.098 106.68C263.855 107.72 262.156 108.59 259.702 109.55C259.205 109.744 255.875 110.972 255.055 111.315C254.641 111.488 254.281 111.651 253.963 111.811C252.243 112.677 250.615 113.666 249.079 114.778C248.943 114.876 248.962 115.085 249.114 115.157L261.115 120.885C257.368 123.357 253.96 125.194 250.893 126.397C250.455 126.569 250.016 126.717 249.57 126.845C248.026 127.287 246.637 127.462 243.739 127.654C243.517 127.669 242.729 127.72 242.684 127.723C242.247 127.752 241.901 127.775 241.555 127.8C240.664 127.863 239.859 127.928 239.04 128.005C238.092 128.094 236.421 128.34 234.012 128.746L196.655 137.002C196.536 137.028 196.461 137.146 196.487 137.265C196.514 137.384 196.631 137.46 196.75 137.434L234.096 129.18C236.484 128.778 238.147 128.533 239.081 128.445C239.897 128.368 240.698 128.304 241.586 128.241C241.931 128.217 242.276 128.193 242.713 128.165C242.757 128.162 243.546 128.11 243.768 128.096C246.695 127.901 248.108 127.723 249.692 127.27C250.151 127.139 250.602 126.986 251.054 126.809C254.241 125.559 257.785 123.635 261.685 121.038C261.828 120.943 261.812 120.728 261.658 120.654L249.642 114.919C251.069 113.909 252.575 113.005 254.161 112.207C254.469 112.051 254.82 111.892 255.225 111.723C256.035 111.384 259.358 110.159 259.862 109.962C260.903 109.555 261.811 109.163 262.609 108.767C262.625 108.782 262.644 108.795 262.664 108.805C269.104 111.99 273.708 114.445 276.474 116.166C278.251 117.272 280.586 116.725 281.69 114.944C282.187 114.143 282.368 113.185 282.198 112.257L280.431 102.591L310.007 122.226C312.837 124.105 316.635 123.462 318.692 120.756C320.745 118.056 320.34 114.22 317.768 112.011L316.006 110.497L285.047 85.9349L199.487 18.0532L191.294 12.0637C188.422 9.9643 185.196 8.39972 181.772 7.44469L178.453 6.51928C172.933 4.97986 167.052 5.39481 161.801 7.69418L160.199 8.39588C155.028 10.6602 150.61 14.3564 147.463 19.0502L145.92 21.352C145.852 21.4534 145.879 21.5908 145.98 21.6589C146.081 21.727 146.218 21.7001 146.286 21.5987L147.83 19.2969C148.896 17.7069 150.11 16.2332 151.451 14.893C151.475 14.9046 151.502 14.9119 151.53 14.9141C153.124 15.0347 154.316 15.0347 155.111 14.9121C155.708 14.82 156.64 14.5725 157.911 14.1691C158.806 13.8851 159.745 13.7671 160.683 13.8208L162.352 13.9163C163.688 13.9929 165.023 13.7388 166.239 13.1765L166.561 13.0276C167.653 12.5225 168.841 12.261 170.044 12.261H172.53C174.051 12.261 175.559 11.9846 176.981 11.4452L178.293 10.948C179.487 10.495 180.751 10.2548 182.028 10.2381C182.39 10.2334 182.729 10.2195 183.044 10.1964C183.834 10.1384 184.92 9.99009 186.302 9.75144C186.358 9.74177 186.405 9.71172 186.438 9.6702C188.047 10.4426 189.586 11.3629 191.034 12.421L199.22 18.4053L284.773 86.2816L315.725 110.839L317.481 112.346C319.875 114.403 320.252 117.974 318.341 120.488C316.425 123.008 312.887 123.607 310.251 121.858L280.244 101.936L273.45 97.255C274.144 96.1476 275.049 94.617 276.166 92.6629C276.176 92.6455 276.184 92.6265 276.189 92.6065C276.189 92.606 276.19 92.6054 276.19 92.6049C276.194 92.5872 276.197 92.5687 276.197 92.5496C276.197 92.542 276.196 92.5346 276.196 92.5272C276.192 92.4961 276.183 92.4659 276.167 92.4387C276.151 92.4115 276.13 92.3881 276.105 92.3698C276.099 92.3655 276.092 92.3615 276.086 92.3577C276.07 92.3489 276.054 92.3421 276.038 92.3373C276.036 92.3368 276.035 92.3363 276.033 92.3359C276.013 92.3305 275.992 92.3281 275.972 92.3285H266.799ZM263.088 108.521C263.989 108.045 264.74 107.556 265.381 107.019C268.412 104.481 270.639 101.685 273.214 97.6291L279.92 102.25L281.764 112.337C281.914 113.157 281.754 114.003 281.315 114.711C280.34 116.284 278.277 116.768 276.707 115.79C273.959 114.08 269.421 111.658 263.088 108.521ZM146.246 145.252H118.165C104.478 145.252 93.3827 134.131 93.3827 120.412V110.387C93.3827 100.739 101.186 92.9181 110.811 92.9181H144.9C146.273 99.5107 147.687 104.477 149.142 107.822C150.194 110.239 152.907 115.058 157.285 122.29C158.427 124.176 157.827 126.633 155.945 127.777C154.954 128.38 153.751 128.521 152.648 128.162C152.449 128.097 152.281 128.321 152.397 128.496L153.473 130.105C156.464 134.582 155.269 140.641 150.803 143.64C149.443 144.553 147.876 145.107 146.246 145.252ZM114.814 229.232L118.974 227.788C121.044 227.07 123.329 227.345 125.171 228.535L126.795 229.584C128.123 230.442 129.703 230.823 131.275 230.666L133.77 230.416C135.32 230.26 136.868 230.719 138.084 231.694L139.815 233.082C140.792 233.866 142.008 234.293 143.26 234.293H147.309C148.547 234.293 149.73 234.806 150.578 235.711L152.274 237.521C153.258 238.571 154.581 239.239 156.009 239.408L158.446 239.695C160.255 239.908 161.894 240.868 162.968 242.343L165.007 245.144L133.275 253.46C131.945 253.582 130.605 253.551 129.282 253.369C119.646 252.042 112.908 243.137 114.232 233.479L114.814 229.232ZM151.858 14.4943C154.329 12.1199 157.209 10.1879 160.376 8.80117L161.978 8.09946C167.135 5.84083 172.912 5.43323 178.335 6.94538L181.653 7.87079C183.082 8.26933 184.476 8.77561 185.824 9.38406C184.645 9.58051 183.708 9.70422 183.012 9.75524C182.706 9.77768 182.376 9.79122 182.023 9.79585C180.694 9.81322 179.379 10.0631 178.137 10.5343L176.825 11.0316C175.453 11.552 173.998 11.8187 172.53 11.8187H170.044C168.777 11.8187 167.526 12.0941 166.376 12.6261L166.054 12.775C164.904 13.3069 163.641 13.5472 162.377 13.4748L160.708 13.3792C159.717 13.3224 158.724 13.4472 157.778 13.7474C156.526 14.1445 155.613 14.3872 155.043 14.475C154.337 14.5839 153.273 14.5909 151.858 14.4943Z" fill="#282943"/>
<path d="M275.465 92.7502C275.575 92.6966 275.621 92.5637 275.568 92.4533C275.514 92.343 275.382 92.2971 275.272 92.3507C264.666 97.5353 256.9 101.735 251.972 104.951C247.606 107.8 241.785 112.274 234.506 118.373C232.883 119.733 232.469 122.069 233.524 123.909C234.066 124.855 234.387 125.669 234.49 126.346C234.678 127.588 234.414 128.384 233.715 128.785C233.609 128.846 233.572 128.982 233.633 129.088C233.693 129.195 233.828 129.232 233.934 129.171C234.815 128.666 235.14 127.685 234.927 126.279C234.815 125.54 234.474 124.677 233.906 123.688C232.959 122.035 233.331 119.936 234.789 118.714C242.056 112.625 247.864 108.162 252.213 105.324C257.122 102.119 264.874 97.9275 275.465 92.7502ZM249.065 115.122C249.182 115.085 249.246 114.96 249.209 114.843C249.172 114.726 249.048 114.662 248.931 114.699L242.449 116.772C242.333 116.809 242.269 116.934 242.306 117.051C242.343 117.168 242.467 117.233 242.583 117.195L249.065 115.122ZM269.247 195.043C269.365 195.013 269.437 194.891 269.406 194.772C269.376 194.653 269.256 194.58 269.138 194.611L235.168 203.39C235.05 203.42 234.978 203.542 235.009 203.661C235.039 203.781 235.159 203.853 235.277 203.822L269.247 195.043ZM244.977 187.456C245.096 187.429 245.17 187.31 245.143 187.189C245.116 187.069 244.998 186.994 244.879 187.021L198.115 197.734C197.996 197.761 197.921 197.881 197.948 198.001C197.975 198.121 198.093 198.197 198.212 198.17L244.977 187.456Z" fill="#282943"/>
<path d="M115.462 101.777H108.068C103.698 101.777 100.156 105.336 100.156 109.727V110.915C100.156 115.306 103.698 118.865 108.068 118.865H115.462C119.831 118.865 123.373 115.306 123.373 110.915V109.727C123.373 105.336 119.831 101.777 115.462 101.777ZM115.462 102.222C119.586 102.222 122.93 105.582 122.93 109.727V110.915C122.93 115.06 119.586 118.419 115.462 118.419H108.068C103.943 118.419 100.6 115.06 100.6 110.915V109.727C100.6 105.582 103.943 102.222 108.068 102.222H115.462ZM115.905 100.588H107.624C102.601 100.588 98.5295 104.679 98.5295 109.727V111.213C98.5295 116.26 102.601 120.351 107.624 120.351H115.905C120.928 120.351 125 116.26 125 111.213V109.727C125 104.679 120.928 100.588 115.905 100.588ZM115.905 101.034C120.683 101.034 124.556 104.926 124.556 109.727V111.213C124.556 116.013 120.683 119.905 115.905 119.905H107.624C102.846 119.905 98.9731 116.013 98.9731 111.213V109.727C98.9731 104.926 102.846 101.034 107.624 101.034H115.905Z" fill="#282943"/>
<path d="M191.675 85.7196L192.567 92.624C192.581 92.7351 192.676 92.8181 192.788 92.8171L209.728 92.6693C209.776 92.6689 209.823 92.6528 209.861 92.6234C210.32 92.2694 210.589 91.7217 210.589 91.1411C210.589 90.1082 209.754 89.2709 208.724 89.2709H202.038L199.01 84.6428C198.943 84.5404 198.807 84.5119 198.704 84.5791C198.602 84.6462 198.574 84.7836 198.641 84.886L201.734 89.6142C201.775 89.6766 201.845 89.7142 201.919 89.7142H208.724C209.51 89.7142 210.147 90.353 210.147 91.1411C210.147 91.56 209.963 91.9565 209.647 92.2267L192.98 92.3721L191.974 84.5881C191.958 84.4667 191.848 84.3811 191.727 84.3968C191.606 84.4126 191.52 84.5237 191.536 84.6451L191.543 84.7012C190.872 86.7726 190.334 88.2927 189.931 89.2593C189.537 90.2049 188.816 91.217 187.757 92.3039C186.936 93.2692 186.38 94.4859 186.088 95.9504C185.797 97.4072 185.797 98.9617 186.088 100.616C187.238 106.608 188.221 111.046 189.038 113.933C189.856 116.82 191.233 120.718 193.172 125.631C195.054 130.097 196.13 133.381 196.397 135.473C196.659 137.527 196.332 139.921 195.412 142.656L179.21 147.879L165.598 116.023L164.593 112.769C163.157 108.121 163.281 103.129 164.945 98.5578L171.339 80.9987C171.392 80.8542 171.285 80.7011 171.132 80.7011H168.922C168.8 80.7011 168.701 80.8003 168.701 80.9227C168.701 81.0451 168.8 81.1443 168.922 81.1443H170.816L164.53 98.4057C162.832 103.068 162.706 108.159 164.171 112.9L165.184 116.176L178.883 148.239C178.928 148.344 179.046 148.398 179.154 148.363L195.653 143.044C195.719 143.022 195.771 142.971 195.794 142.904C196.762 140.067 197.111 137.571 196.835 135.417C196.561 133.274 195.476 129.959 193.581 125.464C191.649 120.567 190.276 116.683 189.463 113.812C188.65 110.94 187.669 106.513 186.522 100.536C186.242 98.9375 186.242 97.4384 186.521 96.0373C186.799 94.6439 187.323 93.4966 188.083 92.6027C189.168 91.4898 189.92 90.4332 190.338 89.4303C190.687 88.594 191.132 87.3576 191.675 85.7196ZM154.434 92.5001C154.382 92.6106 154.428 92.7429 154.538 92.7955C154.649 92.8482 154.78 92.8013 154.833 92.6908L166.765 67.5722C166.817 67.4617 166.771 67.3294 166.66 67.2768C166.55 67.2241 166.418 67.271 166.366 67.3815L154.434 92.5001ZM183.135 67.5933C183.118 67.4721 183.006 67.3879 182.885 67.4052C182.764 67.4225 182.681 67.5348 182.698 67.656L183.545 73.6054C183.947 76.4302 186.557 78.393 189.373 77.9894C189.548 77.9643 189.722 77.9301 189.894 77.8871C190.012 77.8574 190.084 77.7371 190.054 77.6183C190.025 77.4996 189.905 77.4274 189.786 77.457C189.629 77.4964 189.47 77.5276 189.31 77.5506C186.736 77.9195 184.35 76.1251 183.983 73.5427L183.135 67.5933ZM184.755 67.5918C184.737 67.4707 184.625 67.3873 184.504 67.4054C184.383 67.4236 184.3 67.5365 184.318 67.6575L185.112 72.9676C185.419 75.0205 187.328 76.4351 189.374 76.1272C189.394 76.1241 189.414 76.121 189.434 76.1176C189.555 76.0975 189.636 75.9833 189.616 75.8626C189.596 75.7418 189.482 75.6602 189.362 75.6804C189.344 75.6833 189.326 75.6861 189.309 75.6888C187.503 75.9604 185.82 74.7127 185.55 72.9018L184.755 67.5918ZM193.005 92.567L192.784 92.3738L192.98 92.3721L193.005 92.567Z" fill="#282943"/>
<path d="M172.634 42.2184C172.923 42.3704 173.251 42.4931 173.619 42.5872V48.787C173.619 48.9095 173.717 49.0088 173.839 49.0088C173.961 49.0088 174.059 48.9095 174.059 48.787V42.6828C174.785 42.8142 175.646 42.8516 176.641 42.7958C178.358 42.6998 179.54 42.4188 180.197 41.9343L184.72 43.4213C190.505 45.3227 195.035 49.9005 196.905 55.7334L199.696 64.4432C199.845 64.9086 200.029 65.3621 200.246 65.7995L203.621 72.598C205.452 76.2863 205.92 80.5084 204.946 84.5097H191.928L185.067 55.3921C185.039 55.2729 184.92 55.1992 184.802 55.2275C184.683 55.2558 184.61 55.3754 184.638 55.4946L187.432 67.351H166.867L167.011 56.9257C167.013 56.7357 166.793 56.6305 166.649 56.7526C164.88 58.2488 163.374 59.3249 162.136 59.9804C160.908 60.6302 159.566 61.0655 158.11 61.2862H153.915C151.329 61.2862 148.864 60.1843 147.129 58.2527C145.641 56.5961 143.893 55.1977 141.953 54.1138C139.892 52.9617 138.151 51.1506 136.731 48.6759C134.832 45.3673 133.813 40.7942 133.681 34.9564H144.872C145.211 36.9132 145.496 38.2406 145.729 38.9465C147.075 43.0124 150.934 45.6867 155.184 45.4993C156.876 45.4247 158.457 45.2622 159.925 45.0119C162.844 44.5143 167.08 43.5832 172.634 42.2184ZM172.307 41.8421C166.871 43.1748 162.719 44.0856 159.852 44.5743C158.402 44.8215 156.84 44.9821 155.165 45.0559C151.111 45.2347 147.43 42.684 146.147 38.8061C145.916 38.106 145.624 36.7333 145.274 34.6967C145.256 34.5903 145.164 34.5126 145.057 34.5126H133.456C133.333 34.5126 133.234 34.6145 133.236 34.7387C133.348 40.7536 134.384 45.4734 136.349 48.898C137.808 51.4393 139.605 53.3087 141.74 54.5018C143.637 55.5621 145.347 56.93 146.803 58.5506C148.621 60.575 151.205 61.73 153.915 61.73H158.127L158.159 61.7276C159.67 61.5004 161.064 61.0489 162.341 60.3732C163.523 59.7474 164.93 58.7569 166.564 57.4013L166.423 67.5698C166.422 67.6935 166.521 67.7947 166.644 67.7947H187.496C187.51 67.7947 187.523 67.7935 187.536 67.7911L191.54 84.7829C191.564 84.8829 191.652 84.9535 191.754 84.9535H205.117C205.218 84.9535 205.306 84.8848 205.331 84.7866C206.386 80.6326 205.919 76.2347 204.015 72.3995L200.64 65.6011C200.433 65.1836 200.258 64.751 200.115 64.3069L197.324 55.5971C195.411 49.6289 190.776 44.945 184.857 42.9994L180.426 41.5428L181.539 37.756C181.582 37.6098 181.47 37.4645 181.318 37.4713L174.71 37.7671C174.609 37.7717 174.523 37.8459 174.504 37.9466L173.996 40.5903L173.912 37.9816C173.909 37.8619 173.811 37.7669 173.692 37.7669H170.021C169.845 37.7669 169.74 37.9644 169.838 38.1118L172.307 41.8421ZM172.817 41.814L170.433 38.2106H173.479L173.604 42.1241C173.309 42.0409 173.047 41.9374 172.817 41.814ZM174.903 38.2027L181.029 37.9284L179.962 41.5569C179.402 41.9876 178.284 42.2595 176.617 42.3528C175.648 42.407 174.818 42.3704 174.127 42.2441L174.903 38.2027Z" fill="#282943"/>
<path fill-rule="evenodd" clip-rule="evenodd" d="M70.5883 34.9008L70.443 15.7818H88.525C89.8845 15.7818 91.1119 16.5981 91.6408 17.8542C92.6061 20.1463 93.0889 22.6507 93.0889 25.3685C93.0889 28.0834 92.6071 30.5854 91.6439 32.8755C91.114 34.1354 89.8817 34.953 88.5183 34.9493L70.5883 34.9008Z" fill="#282943" stroke="#282943"/>
<path fill-rule="evenodd" clip-rule="evenodd" d="M70.4409 34.8077C69.4663 34.8077 68.8233 30.8105 68.8233 25.5159C68.8233 20.2213 69.6134 15.9292 70.588 15.9292C71.5626 15.9292 72.0586 20.2213 72.0586 25.5159C72.0586 30.8105 71.4156 34.8077 70.4409 34.8077Z" fill="white"/>
<path d="M137.911 22.8819C138.226 23.4673 138.841 23.8649 139.549 23.8649C140.577 23.8649 141.41 23.026 141.41 21.9911V18.3934C141.41 17.3585 140.577 16.5195 139.549 16.5195C138.841 16.5195 138.226 16.9171 137.911 17.5026C137.596 16.9171 136.98 16.5195 136.273 16.5195C135.245 16.5195 134.411 17.3585 134.411 18.3934V21.9911C134.411 23.026 135.245 23.8649 136.273 23.8649C136.98 23.8649 137.596 23.4673 137.911 22.8819ZM138.134 21.9911V18.3934C138.134 17.6068 138.768 16.9692 139.549 16.9692C140.33 16.9692 140.964 17.6068 140.964 18.3934V21.9911C140.964 22.7776 140.33 23.4152 139.549 23.4152C138.768 23.4152 138.134 22.7776 138.134 21.9911ZM137.687 21.9911C137.687 22.7776 137.054 23.4152 136.273 23.4152C135.491 23.4152 134.858 22.7776 134.858 21.9911V18.3934C134.858 17.6068 135.491 16.9692 136.273 16.9692C137.054 16.9692 137.687 17.6068 137.687 18.3934V21.9911ZM144.314 18.3184C143.286 18.3184 142.453 19.1573 142.453 20.1922V23.79C142.453 24.8248 143.286 25.6638 144.314 25.6638C145.342 25.6638 146.176 24.8248 146.176 23.79V20.1922C146.176 19.1573 145.342 18.3184 144.314 18.3184ZM144.314 18.7681C145.096 18.7681 145.729 19.4057 145.729 20.1922V23.79C145.729 24.5765 145.096 25.2141 144.314 25.2141C143.533 25.2141 142.9 24.5765 142.9 23.79V20.1922C142.9 19.4057 143.533 18.7681 144.314 18.7681Z" fill="#282943"/>
<path d="M143.965 34.9271C143.942 35.03 143.853 35.1028 143.75 35.1028H134.927C134.797 35.1028 134.696 34.9895 134.707 34.8574L135.001 31.2313C135.011 31.1066 135.118 31.0139 135.239 31.0243C135.36 31.0347 135.451 31.1442 135.44 31.269L135.166 34.6496H143.575L144.417 30.897C144.441 30.7942 144.53 30.7213 144.632 30.7213H147.87C148.537 30.7213 149.129 30.2815 149.337 29.6307C149.455 29.2628 149.537 29.0639 149.623 28.9747C149.71 28.8862 149.849 28.8862 149.935 28.9747C150.022 29.0632 150.022 29.2067 149.935 29.2952C149.92 29.3109 149.847 29.4897 149.756 29.7723C149.488 30.6091 148.728 31.1746 147.87 31.1746H144.808L143.965 34.9271Z" fill="#282943"/>
<path d="M70.4418 35.103C69.2865 35.103 68.53 30.8261 68.53 25.3688C68.53 19.9115 69.2865 15.6346 70.4418 15.6346C71.597 15.6346 72.3535 19.9115 72.3535 25.3688C72.3535 30.8261 71.597 35.103 70.4418 35.103ZM70.4418 34.6572C71.1448 34.6572 71.8947 30.4174 71.8947 25.3688C71.8947 20.3202 71.1448 16.0805 70.4418 16.0805C69.7387 16.0805 68.9888 20.3202 68.9888 25.3688C68.9888 30.4174 69.7387 34.6572 70.4418 34.6572Z" fill="#282943"/>
<path fill-rule="evenodd" clip-rule="evenodd" d="M73.2348 17.1713L72.0584 13.5695L71.176 17.0212L66.176 18.522L71.176 19.1223L72.9407 22.1238L73.2994 19.9227L73.8231 19.4224L79.1172 17.7716L73.2348 17.1713Z" fill="white"/>
<path d="M72.1765 13.4233C72.1005 13.2092 71.7933 13.2312 71.7481 13.4539L71.0209 17.0319L66.0504 18.3155C65.8109 18.3773 65.8344 18.7276 66.08 18.7564L71.0689 19.342L72.7692 22.5934C72.8664 22.7792 73.1408 22.7411 73.1845 22.5358L73.795 19.6694L79.2528 18.0294C79.4869 17.959 79.4545 17.6151 79.2114 17.5904L73.4481 17.0053L72.1765 13.4233ZM73.308 16.9911L73.4956 17.139L73.4481 17.0053L73.308 16.9911ZM73.0756 17.2904C73.1046 17.372 73.1776 17.4296 73.2633 17.4383L78.0438 17.9236L73.541 19.2767C73.4629 19.3001 73.4038 19.3646 73.3867 19.4449L72.8774 21.8361L71.4087 19.0277C71.3744 18.9621 71.3103 18.9178 71.2372 18.9092L67.3258 18.4501L71.2668 17.4324C71.3495 17.411 71.4128 17.344 71.4299 17.2598L72.0251 14.3311L73.0756 17.2904Z" fill="#282943"/>
</svg>
