<svg width="24" height="24" viewBox="0 0 24 24" fill="none" xmlns="http://www.w3.org/2000/svg">
<path d="M17.492 13.003L17.0668 13.3522L17.455 13.7422L19.7495 16.0466C19.825 16.1404 19.8641 16.2585 19.8594 16.3791C19.8546 16.505 19.8024 16.6243 19.7134 16.7134C19.6243 16.8024 19.505 16.8546 19.3791 16.8594C19.2585 16.8641 19.1404 16.825 19.0466 16.7496L16.4522 14.1651L16.1963 13.9102L15.8738 14.0731C14.9576 14.5361 13.9655 14.8306 12.9449 14.9423L12.4994 14.9911V15.4394V18.9994C12.4994 19.132 12.4467 19.2591 12.3529 19.3529C12.2591 19.4467 12.132 19.4994 11.9994 19.4994C11.8668 19.4994 11.7396 19.4467 11.6458 19.3529C11.552 19.2591 11.4994 19.132 11.4994 18.9994V15.4394V14.9911L11.0538 14.9423C10.0333 14.8306 9.04116 14.5361 8.12487 14.0731L7.80244 13.9102L7.54649 14.1651L4.95212 16.7496C4.8583 16.825 4.74024 16.8641 4.61961 16.8594C4.49377 16.8546 4.3744 16.8024 4.28535 16.7134C4.1963 16.6243 4.14414 16.505 4.13928 16.3791C4.13461 16.2583 4.17387 16.1401 4.24948 16.0462L6.53444 13.7414L6.92035 13.3521L6.49735 13.0035C4.83952 11.6372 3.76586 9.6896 3.49564 7.55843C3.48794 7.49274 3.49316 7.42618 3.51101 7.36248C3.52898 7.29835 3.55941 7.23839 3.60056 7.18602C3.64171 7.13365 3.69277 7.08989 3.75083 7.05726C3.80889 7.02462 3.87281 7.00374 3.93893 6.9958C4.00506 6.98786 4.07211 6.99303 4.13624 7.01101C4.20037 7.02898 4.26033 7.05941 4.31271 7.10056C4.36508 7.14171 4.40883 7.19277 4.44147 7.25083C4.47411 7.30889 4.49499 7.37281 4.50292 7.43893L4.50281 7.43895L4.50431 7.44955C4.76029 9.25509 5.65944 10.9075 7.03645 12.1031C8.41346 13.2986 10.1758 13.9569 11.9994 13.9569C13.823 13.9569 15.5853 13.2986 16.9623 12.1031C18.3393 10.9075 19.2384 9.25509 19.4944 7.44955L19.4945 7.44956L19.4958 7.43893C19.5037 7.3728 19.5246 7.30889 19.5573 7.25083C19.5899 7.19277 19.6336 7.14171 19.686 7.10056C19.7384 7.05941 19.7984 7.02898 19.8625 7.01101C19.9266 6.99303 19.9937 6.98786 20.0598 6.9958C20.1259 7.00374 20.1898 7.02462 20.2479 7.05726C20.306 7.08989 20.357 7.13365 20.3982 7.18602C20.4393 7.23839 20.4697 7.29835 20.4877 7.36249C20.5056 7.42612 20.5108 7.49261 20.5031 7.55824C20.2304 9.69068 19.1533 11.6384 17.492 13.003Z" fill="#282943" stroke="#282943"/>
</svg>