<svg width="74" height="24" viewBox="0 0 74 24" fill="none" xmlns="http://www.w3.org/2000/svg">
<path d="M64.6568 19.3719L73.1053 9.54381V7.31726H60.7285V10.063H68.8233L60.7965 19.4019H60.4088C59.7285 19.4019 59.4054 19.0557 59.4054 18.3601V12.5192C59.4054 10.7852 58.8442 9.45395 57.7525 8.52872C56.6301 7.60349 55.0655 7.14087 53.0555 7.14087C51.0454 7.14087 49.5999 7.57353 48.4163 8.38228C47.2361 9.19102 46.5558 10.3492 46.4062 11.8236H49.5386C49.6577 11.1879 50.0114 10.6687 50.6032 10.2627C51.195 9.85666 51.9637 9.65697 52.9092 9.65697C53.9432 9.65697 54.7696 9.91657 55.3614 10.3792C55.9532 10.8418 56.2491 11.5074 56.2491 12.3162V13.2115H52.4398C50.3141 13.2115 48.719 13.6441 47.6238 14.4529C46.5014 15.2616 45.9708 16.4464 45.9708 17.9508C45.9708 19.3087 46.4742 20.3803 47.5082 21.1292C48.5115 21.9113 49.872 22.2841 51.5862 22.2841C53.7731 22.2841 56.0043 21.7349 56.8239 19.7413C56.8239 20.5235 57.0314 21.0992 57.4736 21.5053C57.8885 21.9113 58.3511 22.111 59.3544 22.111H73.4999V19.3652H64.667L64.6568 19.3719ZM56.2423 16.0471C56.2117 17.2019 55.6744 18.1538 54.9329 18.8494C54.1948 19.5416 53.3173 19.8645 52.0147 19.8645C51.127 19.8645 50.4502 19.6914 49.9468 19.2854C49.4434 18.9093 49.2087 18.3901 49.2087 17.7544C49.2087 17.0322 49.474 16.4831 50.008 16.107C50.5386 15.7309 51.28 15.5279 52.2834 15.5279H56.2423V16.0471Z" fill="#282943"/>
<path d="M44.6786 11.8835C45.386 10.8717 45.7704 9.68689 45.7704 8.329C45.7704 7.05763 45.4439 5.92938 44.8555 4.94757C44.2637 3.96576 43.4066 3.21359 42.3454 2.69107C41.2536 2.17188 39.9816 1.88232 38.5633 1.88232H30.4107V22.1176H33.8085V14.7757H38.4171L42.3454 22.1176H46.1275L41.7536 14.0535C42.9644 13.6474 43.9405 12.9252 44.6786 11.8868V11.8835ZM38.298 11.8835H33.8085V4.77118H38.298C39.5088 4.77118 40.485 5.11731 41.1924 5.75299C41.8998 6.38867 42.2842 7.25732 42.2842 8.32567C42.2842 9.39401 41.8998 10.2926 41.1924 10.9283C40.485 11.564 39.5088 11.8835 38.298 11.8835Z" fill="#282943"/>
<path d="M20.4454 1.73312C18.8934 1.73312 17.6353 2.96426 17.6353 4.48295C17.6353 6.00165 18.8934 7.23279 20.4454 7.23279C21.9974 7.23279 23.2556 6.00165 23.2556 4.48296C23.2556 2.96426 21.9974 1.73312 20.4454 1.73312Z" fill="#008BFF"/>
<path d="M0.504035 12C0.504035 13.8933 1.98887 15.4423 3.88275 15.6024C2.6597 17.0233 2.72924 19.1488 4.09545 20.4857C5.46166 21.8225 7.63369 21.8906 9.08581 20.6938C9.24533 22.547 10.8324 24 12.7672 24C14.702 24 16.285 22.547 16.4486 20.6938C17.9007 21.8906 20.0728 21.8225 21.439 20.4857C22.8052 19.1488 22.8747 17.0233 21.6517 15.6024C23.5456 15.4463 25.0304 13.8933 25.0304 12C25.0304 10.0027 23.3738 8.38159 21.3326 8.38159C21.1895 8.38159 21.0504 8.3936 20.9113 8.40961C20.76 8.42562 20.6045 8.42962 20.445 8.42962C19.9173 8.42962 19.4142 8.32955 18.9561 8.14943C17.9253 7.74917 17.1072 6.94463 16.6981 5.93996C16.5141 5.48766 16.4118 4.99533 16.4118 4.48299C16.4118 4.32689 16.4159 4.17879 16.4323 4.02668C16.4486 3.89059 16.4609 3.7545 16.4609 3.61841C16.4609 1.62108 14.8043 1.03254e-06 12.7631 8.57926e-07C10.8283 6.92411e-07 9.24534 1.45297 9.08172 3.3062C7.62961 2.10941 5.45757 2.17745 4.09136 3.51434C2.72515 4.85123 2.65561 6.97665 3.87866 8.3976C1.98478 8.5537 0.499944 10.1067 0.499944 12L0.504035 12Z" fill="#008BFF"/>
</svg>
