<svg width="48" height="48" viewBox="0 0 48 48" fill="none" xmlns="http://www.w3.org/2000/svg">
<path d="M38.292 3.46551C35.3122 3.46551 32.8966 5.9278 32.8966 8.96518C32.8966 12.0026 35.3122 14.4648 38.292 14.4648C41.2719 14.4648 43.6875 12.0026 43.6875 8.96518C43.6875 5.9278 41.2719 3.46551 38.292 3.46551Z" fill="#008BFF"/>
<path d="M0.0109464 24C0.0109461 27.7865 2.86183 30.8846 6.49808 31.2048C4.14983 34.0467 4.28335 38.2975 6.90647 40.9713C9.5296 43.6451 13.6999 43.7812 16.4879 41.3876C16.7942 45.0941 19.8415 48 23.5563 48C27.271 48 30.3104 45.0941 30.6246 41.3876C33.4126 43.7812 37.5829 43.6451 40.206 40.9713C42.8292 38.2975 42.9627 34.0467 40.6144 31.2048C44.2507 30.8926 47.1016 27.7865 47.1016 24C47.1016 20.0053 43.9208 16.7632 40.0018 16.7632C39.727 16.7632 39.4599 16.7872 39.1929 16.8192C38.9023 16.8512 38.6039 16.8592 38.2976 16.8592C37.2845 16.8592 36.3185 16.6591 35.4389 16.2989C33.4597 15.4983 31.889 13.8893 31.1036 11.8799C30.7502 10.9753 30.5539 9.99066 30.5539 8.96598C30.5539 8.65377 30.5617 8.35757 30.5931 8.05337C30.6246 7.78119 30.6481 7.50901 30.6481 7.23683C30.6481 3.24216 27.4674 2.06508e-06 23.5484 1.71585e-06C19.8336 1.38482e-06 16.7942 2.90593 16.4801 6.6124C13.692 4.21881 9.52175 4.3549 6.89862 7.02868C4.27549 9.70247 4.14198 13.9533 6.49023 16.7952C2.85398 17.1074 0.00309229 20.2135 0.00309196 24L0.0109464 24Z" fill="#008BFF"/>
</svg>
