<svg width="16" height="17" viewBox="0 0 16 17" fill="none" xmlns="http://www.w3.org/2000/svg">
<path d="M8 11.8334V15.1667" stroke="#008BFF" stroke-width="1.33333" stroke-linecap="round" stroke-linejoin="round"/>
<path d="M3.33301 11.8334H12.6663V10.66C12.6662 10.412 12.5969 10.1689 12.4662 9.95807C12.3354 9.74726 12.1485 9.57709 11.9263 9.46671L10.7397 8.86671C10.5175 8.75632 10.3306 8.58616 10.1999 8.37534C10.0691 8.16453 9.99981 7.92143 9.99967 7.67337V4.50004H10.6663C11.02 4.50004 11.3591 4.35957 11.6092 4.10952C11.8592 3.85947 11.9997 3.52033 11.9997 3.16671C11.9997 2.81309 11.8592 2.47395 11.6092 2.2239C11.3591 1.97385 11.02 1.83337 10.6663 1.83337H5.33301C4.97939 1.83337 4.64025 1.97385 4.3902 2.2239C4.14015 2.47395 3.99967 2.81309 3.99967 3.16671C3.99967 3.52033 4.14015 3.85947 4.3902 4.10952C4.64025 4.35957 4.97939 4.50004 5.33301 4.50004H5.99967V7.67337C5.99954 7.92143 5.93022 8.16453 5.79949 8.37534C5.66876 8.58616 5.48182 8.75632 5.25967 8.86671L4.07301 9.46671C3.85087 9.57709 3.66392 9.74726 3.53319 9.95807C3.40247 10.1689 3.33314 10.412 3.33301 10.66V11.8334Z" stroke="#008BFF" stroke-width="1.33333" stroke-linecap="round" stroke-linejoin="round"/>
</svg>
