<svg width="24" height="24" viewBox="0 0 24 24" fill="none" xmlns="http://www.w3.org/2000/svg">
<path d="M0 10.6195C0 16.4844 4.67181 21.2389 10.4348 21.2389C16.1978 21.2389 20.8696 16.4844 20.8696 10.6195C20.8696 4.7545 16.1978 0 10.4348 0C4.67181 0 0 4.7545 0 10.6195Z" fill="#4E59D5"/>
<path d="M15.2348 18.5841C15.2348 20.2849 16.5896 21.6637 18.2609 21.6637C19.9321 21.6637 21.287 20.2849 21.287 18.5841C21.287 16.8832 19.9321 15.5044 18.2609 15.5044C16.5896 15.5044 15.2348 16.8832 15.2348 18.5841Z" fill="#4E59D5"/>
<path d="M20.8696 22.4071C20.8696 23.2868 21.5703 24 22.4348 24C23.2992 24 24 23.2868 24 22.4071C24 21.5273 23.2992 20.8142 22.4348 20.8142C21.5703 20.8142 20.8696 21.5273 20.8696 22.4071Z" fill="#4E59D5"/>
<path d="M10.1832 6.445C10.3321 6.14255 10.5262 5.81154 10.6147 5.70928C10.7032 5.60701 10.841 5.52344 10.9211 5.52344C11.0011 5.52344 11.1985 5.59289 11.3597 5.67774C11.521 5.76259 11.71 5.97243 11.7799 6.14415C11.8604 6.34177 11.8898 6.78174 11.8602 7.34383C11.8345 7.832 11.7626 8.42255 11.7004 8.65618C11.6381 8.88981 11.5584 9.20043 11.5231 9.34645L11.4591 9.61193L13.0387 9.57551C14.4511 9.54291 14.6405 9.55958 14.8285 9.73268C14.9949 9.88592 15.0246 10.004 14.9714 10.3001C14.9345 10.5057 14.8666 11.0801 14.8206 11.5765C14.7746 12.073 14.7 12.5928 14.6548 12.7317C14.6096 12.8706 14.4126 13.2529 14.2171 13.5813C14.0215 13.9096 13.8372 14.2978 13.8073 14.4438C13.7775 14.5898 13.6981 14.7846 13.6308 14.8765C13.5635 14.9685 13.3735 15.1332 13.2087 15.2424C13.0438 15.3515 12.6682 15.4861 12.3739 15.5412C12.0796 15.5963 11.3458 15.6404 10.7431 15.639C10.1405 15.6377 9.36575 15.594 9.02141 15.5418C8.67706 15.4896 8.24902 15.3581 8.07038 15.2495C7.89163 15.141 7.65685 14.9033 7.54864 14.7214C7.41862 14.503 7.32502 14.0661 7.27306 13.4349C7.22965 12.9093 7.19052 12.3597 7.18614 12.2137C7.18165 12.0677 7.21713 11.7794 7.26492 11.573C7.31271 11.3667 7.48634 10.9844 7.65069 10.7235C7.81504 10.4626 8.12026 10.125 8.32895 9.97321C8.53765 9.82146 8.86843 9.42429 9.06398 9.09073C9.25963 8.75707 9.53052 8.14899 9.66607 7.73951C9.80161 7.32992 10.0343 6.74733 10.1832 6.445Z" fill="white"/>
<path d="M4.94266 11.9482C5.02196 11.7146 5.2365 11.3681 5.41942 11.1783C5.67789 10.9102 5.83963 10.8332 6.14454 10.8332C6.40102 10.8332 6.60064 10.9049 6.72106 11.0403C6.86662 11.2039 6.88968 11.3431 6.83125 11.704C6.79055 11.9551 6.75455 12.519 6.75121 12.9571C6.74788 13.3951 6.79734 13.9447 6.8612 14.1783C6.92506 14.4119 7.0076 14.7307 7.04474 14.8868C7.10203 15.1279 7.06436 15.1958 6.79368 15.3382C6.61859 15.4303 6.35918 15.5057 6.21747 15.5057C6.05198 15.5057 5.79789 15.3403 5.50791 15.0436C5.24579 14.7754 5.00141 14.3973 4.92575 14.1426C4.85407 13.9012 4.79605 13.4044 4.79688 13.0384C4.79772 12.6725 4.86335 12.1818 4.94266 11.9482Z" fill="white"/>
</svg>
